{
    "asset" : {
        "generator" : "Khronos glTF Blender I/O v1.5.17",
        "version" : "2.0"
    },
    "scene" : 0,
    "scenes" : [
        {
            "name" : "Scene",
            "nodes" : [
                1,
                2,
                3,
                4
            ]
        }
    ],
    "nodes" : [
        {
            "mesh" : 0,
            "name" : "Icing.001",
            "rotation" : [
                0,
                -0.07818575948476791,
                0,
                0.9969388246536255
            ]
        },
        {
            "children" : [
                0
            ],
            "mesh" : 1,
            "name" : "Body.001",
            "rotation" : [
                0,
                0.5045884847640991,
                0,
                0.8633601069450378
            ],
            "translation" : [
                -0.00019449973478913307,
                0.024941183626651764,
                -0.0015644688392058015
            ]
        },
        {
            "name" : "Camera.001",
            "rotation" : [
                0.483536034822464,
                0.33687159419059753,
                -0.20870360732078552,
                0.7804827094078064
            ],
            "translation" : [
                23.57587432861328,
                2.151394844055176,
                -22.920066833496094
            ]
        },
        {
            "name" : "Light.001",
            "rotation" : [
                0.5871453285217285,
                0.6106094121932983,
                -0.3581744432449341,
                -0.39259085059165955
            ],
            "translation" : [
                -4.416005611419678,
                2.561367988586426,
                3.837453842163086
            ]
        },
        {
            "mesh" : 2,
            "name" : "Plane",
            "rotation" : [
                0,
                0.6321903467178345,
                0,
                0.7748131155967712
            ]
        }
    ],
    "materials" : [
        {
            "doubleSided" : true,
            "name" : "Material.002",
            "pbrMetallicRoughness" : {
                "baseColorFactor" : [
                    0.8000000715255737,
                    0.2469327598810196,
                    0.5317542552947998,
                    1
                ],
                "metallicFactor" : 0,
                "roughnessFactor" : 0.31509435176849365
            }
        },
        {
            "doubleSided" : true,
            "name" : "Material.003",
            "pbrMetallicRoughness" : {
                "baseColorFactor" : [
                    0.8000000715255737,
                    0.5691441893577576,
                    0.31212949752807617,
                    1
                ],
                "metallicFactor" : 0,
                "roughnessFactor" : 0.5
            }
        },
        {
            "doubleSided" : true,
            "name" : "Material.001",
            "pbrMetallicRoughness" : {
                "baseColorFactor" : [
                    0.07892968505620956,
                    0.5677210092544556,
                    0.8000000715255737,
                    1
                ],
                "metallicFactor" : 0,
                "roughnessFactor" : 0.31320756673812866
            }
        }
    ],
    "meshes" : [
        {
            "name" : "Torus.007",
            "primitives" : [
                {
                    "attributes" : {
                        "POSITION" : 0,
                        "NORMAL" : 1,
                        "TEXCOORD_0" : 2
                    },
                    "indices" : 3,
                    "material" : 0
                }
            ]
        },
        {
            "name" : "Torus.006",
            "primitives" : [
                {
                    "attributes" : {
                        "POSITION" : 4,
                        "NORMAL" : 5,
                        "TEXCOORD_0" : 6
                    },
                    "indices" : 7,
                    "material" : 1
                }
            ]
        },
        {
            "name" : "Plane",
            "primitives" : [
                {
                    "attributes" : {
                        "POSITION" : 8,
                        "NORMAL" : 9,
                        "TEXCOORD_0" : 10
                    },
                    "indices" : 11,
                    "material" : 2
                }
            ]
        }
    ],
    "accessors" : [
        {
            "bufferView" : 0,
            "componentType" : 5126,
            "count" : 1254,
            "max" : [
                0.07401937246322632,
                0.03396439924836159,
                0.07358099520206451
            ],
            "min" : [
                -0.0751887857913971,
                -0.008993939496576786,
                -0.07555709779262543
            ],
            "type" : "VEC3"
        },
        {
            "bufferView" : 1,
            "componentType" : 5126,
            "count" : 1254,
            "type" : "VEC3"
        },
        {
            "bufferView" : 2,
            "componentType" : 5126,
            "count" : 1254,
            "type" : "VEC2"
        },
        {
            "bufferView" : 3,
            "componentType" : 5123,
            "count" : 7416,
            "type" : "SCALAR"
        },
        {
            "bufferView" : 4,
            "componentType" : 5126,
            "count" : 1425,
            "max" : [
                0.07317062467336655,
                0.030039068311452866,
                0.07327979803085327
            ],
            "min" : [
                -0.07336591929197311,
                -0.026715999469161034,
                -0.07338380813598633
            ],
            "type" : "VEC3"
        },
        {
            "bufferView" : 5,
            "componentType" : 5126,
            "count" : 1425,
            "type" : "VEC3"
        },
        {
            "bufferView" : 6,
            "componentType" : 5126,
            "count" : 1425,
            "type" : "VEC2"
        },
        {
            "bufferView" : 7,
            "componentType" : 5123,
            "count" : 8064,
            "type" : "SCALAR"
        },
        {
            "bufferView" : 8,
            "componentType" : 5126,
            "count" : 4,
            "max" : [
                1,
                0,
                1
            ],
            "min" : [
                -1,
                0,
                -1
            ],
            "type" : "VEC3"
        },
        {
            "bufferView" : 9,
            "componentType" : 5126,
            "count" : 4,
            "type" : "VEC3"
        },
        {
            "bufferView" : 10,
            "componentType" : 5126,
            "count" : 4,
            "type" : "VEC2"
        },
        {
            "bufferView" : 11,
            "componentType" : 5123,
            "count" : 6,
            "type" : "SCALAR"
        }
    ],
    "bufferViews" : [
        {
            "buffer" : 0,
            "byteLength" : 15048,
            "byteOffset" : 0
        },
        {
            "buffer" : 0,
            "byteLength" : 15048,
            "byteOffset" : 15048
        },
        {
            "buffer" : 0,
            "byteLength" : 10032,
            "byteOffset" : 30096
        },
        {
            "buffer" : 0,
            "byteLength" : 14832,
            "byteOffset" : 40128
        },
        {
            "buffer" : 0,
            "byteLength" : 17100,
            "byteOffset" : 54960
        },
        {
            "buffer" : 0,
            "byteLength" : 17100,
            "byteOffset" : 72060
        },
        {
            "buffer" : 0,
            "byteLength" : 11400,
            "byteOffset" : 89160
        },
        {
            "buffer" : 0,
            "byteLength" : 16128,
            "byteOffset" : 100560
        },
        {
            "buffer" : 0,
            "byteLength" : 48,
            "byteOffset" : 116688
        },
        {
            "buffer" : 0,
            "byteLength" : 48,
            "byteOffset" : 116736
        },
        {
            "buffer" : 0,
            "byteLength" : 32,
            "byteOffset" : 116784
        },
        {
            "buffer" : 0,
            "byteLength" : 12,
            "byteOffset" : 116816
        }
    ],
    "buffers" : [
        {
            "byteLength" : 116828,
            "uri" : "data:application/octet-stream;base64,"
        }
    ]
}
